# xmcd
#
# Track frame offsets:
#	150
#	23815
#	60555
#	79900
#	99492
#	116907
#	131860
#	145985
#	161845
#	181317
#	196037
#	210615
#	228377
#	242462
#	256977
#	270637
#	285977
#	306745
#
# Disc length: 4372 seconds
#
# Revision: 1
# Processed by: cddbd v1.5PL3 Copyright (c) Steve Scherf et al.
# Submitted via: CDex 1.50Beta5
#
DISCID=06111212
DTITLE=Various Artist - 沖縄の歌 決定盤
DYEAR=1900
DGENRE=Country
TTITLE0=島唄(三味線ヴァージョン)
TTITLE1=黄金の花
TTITLE2=十九の春
TTITLE3=芭蕉布
TTITLE4=美わしの琉球
TTITLE5=安里屋ゆんた
TTITLE6=えんどうの花
TTITLE7=てぃんさぐぬ花
TTITLE8=沖縄(うちなー)
TTITLE9=安波節
TTITLE10=ユイユイ(沖縄口ヴァージョン)
TTITLE11=なんた浜
TTITLE12=遊び庭
TTITLE13=ハイサイおじさん
TTITLE14=豊年音頭
TTITLE15=唐船ドーイ
TTITLE16=七月エイサー(仲順流り/クーダーカー)
TTITLE17=花(三味線ヴァージョン)
EXTD=
EXTT0=
EXTT1=
EXTT2=
EXTT3=
EXTT4=
EXTT5=
EXTT6=
EXTT7=
EXTT8=
EXTT9=
EXTT10=
EXTT11=
EXTT12=
EXTT13=
EXTT14=
EXTT15=
EXTT16=
EXTT17=
PLAYORDER=
